<svg width="172" height="121" viewBox="0 0 172 121" fill="none" xmlns="http://www.w3.org/2000/svg">
<path d="M17.9402 69.2915L19.21 70.2755L22.3048 61.2303L20.6605 61.2173L7.03871 60.9957C8.02004 61.6696 11.6539 64.4349 17.9402 69.2915ZM27.4453 76.6022L26.3187 79.8948L3.85357 62.2733L5.30387 58.0346L33.8033 58.0199L32.6768 61.3125L25.214 61.2534L21.5235 72.0395L27.4453 76.6022Z" fill="#F2BD00"/>
<path d="M44.1913 45.198L42.2705 47.7072L39.4754 45.5676C40.8175 47.9383 40.5241 50.3835 38.5953 52.9033C37.3796 54.4914 35.9493 55.3947 34.3044 55.6133C32.6545 55.7944 31.0355 55.2771 29.4474 54.0614L18.3623 45.576L20.2831 43.0668L30.7329 51.0659C31.8976 51.9574 33.0138 52.3417 34.0818 52.2189C35.1497 52.0961 36.0727 51.5264 36.8507 50.51C37.8719 49.176 38.2165 47.7607 37.8845 46.264C37.5688 44.7462 36.6168 43.3794 35.0287 42.1637L26.167 35.3802L28.0877 32.871L44.1913 45.198Z" fill="#F2BD00"/>
<path d="M41.9567 33.9884C43.2234 35.7709 44.6853 36.9075 46.3426 37.3982C47.9999 37.8889 49.4915 37.6632 50.8175 36.7209C52.1652 35.7632 52.9511 34.4523 53.1753 32.7882C53.4212 31.1086 52.764 29.1711 51.2039 26.9756C49.721 24.8889 48.143 23.7039 46.4697 23.4209C44.7964 23.1378 43.3728 23.4133 42.199 24.2474C40.8296 25.2206 40.0823 26.5858 39.9571 28.3432C39.8382 30.0634 40.5047 31.9451 41.9567 33.9884ZM59.7345 33.5249L57.1586 35.3554L55.4209 32.9099C55.5291 35.5482 54.4747 37.6552 52.2575 39.2307C50.062 40.7909 47.7546 41.2037 45.3354 40.4693C42.9378 39.7195 40.9127 38.1816 39.2599 35.8558C37.4217 33.269 36.6018 30.7111 36.8002 28.182C36.9831 25.6312 38.1179 23.6144 40.2047 22.1315C42.3567 20.6023 44.687 20.3367 47.1955 21.3348L40.7774 12.303L43.3533 10.4725L59.7345 33.5249Z" fill="#F2BD00"/>
<path d="M66.1489 31.1456L63.2371 32.3732L55.3585 13.6862L58.2702 12.4586L66.1489 31.1456ZM55.1139 5.28101C55.6378 5.49419 56.0138 5.87108 56.2417 6.41166C56.4696 6.95225 56.477 7.48453 56.2638 8.00851C56.0403 8.50791 55.6582 8.87157 55.1176 9.09949C54.577 9.32741 54.0499 9.34706 53.5363 9.15845C53.0369 8.93491 52.6733 8.55284 52.4453 8.01226C52.2174 7.47167 52.1978 6.94457 52.3864 6.43096C52.5996 5.90698 52.9764 5.53103 53.517 5.30311C54.0576 5.07519 54.5899 5.06783 55.1139 5.28101Z" fill="#F2BD00"/>
<path d="M85.4799 16.1564C86.019 19.1211 85.6254 21.7269 84.2993 23.9737C82.9732 26.2205 80.8409 27.6111 77.9024 28.1454C75.0426 28.6654 72.599 28.1204 70.5717 26.5104C68.5657 24.8695 67.2956 22.5797 66.7613 19.6413C66.2223 16.6765 66.6265 14.0553 67.9741 11.7774C69.3432 9.46861 71.4051 8.06375 74.16 7.56285C77.1772 7.01425 79.6756 7.56281 81.6553 9.20854C83.6612 10.8495 84.9361 13.1655 85.4799 16.1564ZM69.9813 19.0151C70.3581 21.0878 71.2311 22.7586 72.6002 24.0275C73.9645 25.2701 75.5649 25.7245 77.4015 25.3905C79.3955 25.028 80.8015 24.0405 81.6196 22.4282C82.4329 20.7896 82.6464 18.9077 82.26 16.7825C81.8592 14.5787 81.0185 12.8614 79.7376 11.6307C78.452 10.3737 76.7598 9.93604 74.6609 10.3177C72.7718 10.6612 71.423 11.6653 70.6145 13.3301C69.8059 14.995 69.5949 16.89 69.9813 19.0151Z" fill="#F2BD00"/>
<path d="M108.457 29.7846L104.54 28.6428L103.33 0.207811L106.671 1.18169L107.061 12.42L107.354 26.4216C109.293 23.4869 111.922 19.6145 115.241 14.8044L121.686 5.55855L125.027 6.53243L108.457 29.7846Z" fill="#F2BD00"/>
<path d="M131.03 40.8779C129.265 40.6758 127.445 39.9369 125.571 38.6613C123.036 36.9355 121.511 34.7683 120.997 32.1598C120.519 29.5442 121.151 26.958 122.892 24.401C124.708 21.7338 126.835 20.1014 129.275 19.5038C131.714 18.9062 134.024 19.3503 136.207 20.836C138.301 22.2617 139.507 24.0671 139.826 26.2521C140.145 28.4371 139.464 30.764 137.784 33.2329C137.303 33.9382 136.806 34.551 136.29 35.0711L124.85 27.2824C123.923 29.0707 123.688 30.7659 124.146 32.3679C124.604 33.97 125.692 35.3563 127.411 36.5269C129.285 37.8025 131.047 38.4372 132.696 38.4311L131.03 40.8779ZM134.653 23.1175C133.397 22.2621 132.02 21.9861 130.523 22.2896C129.026 22.5931 127.63 23.5299 126.335 25.1001L135.329 31.2231L135.779 30.5618C136.725 29.1731 137.1 27.8158 136.906 26.4899C136.727 25.1421 135.976 24.0179 134.653 23.1175Z" fill="#F2BD00"/>
<path d="M134.781 46.5191L132.656 44.1808L147.688 30.5687L149.787 32.8773L147.153 35.272C149.725 34.3751 151.89 34.8936 153.648 36.8273C153.971 37.1825 154.203 37.4766 154.343 37.7098L152.034 39.8086C151.795 39.2686 151.479 38.7816 151.084 38.3475C150.133 37.3017 148.861 36.873 147.266 37.0613C145.671 37.2497 144.243 37.9179 142.98 39.0659L134.781 46.5191Z" fill="#F2BD00"/>
<path d="M151.077 60.5448C149.585 61.4274 148.091 61.5987 146.594 61.0589C145.111 60.542 143.833 59.377 142.761 57.5638C141.512 55.4523 140.856 53.5319 140.794 51.8028L143.444 50.2346C143.436 52.3155 143.955 54.2395 145 56.0068C145.625 57.0625 146.306 57.7437 147.045 58.0501C147.784 58.3565 148.51 58.2993 149.221 57.8784C150.047 57.3897 150.507 56.6996 150.599 55.8084C150.705 54.9401 150.624 53.6248 150.356 51.8624C150.087 50.2554 150.094 48.8263 150.376 47.5749C150.672 46.3465 151.462 45.3522 152.748 44.5918C154.193 43.7365 155.66 43.597 157.147 44.1733C158.671 44.7591 159.915 45.8667 160.879 47.4963C161.952 49.3095 162.561 50.9162 162.708 52.3166L160.126 53.844C160.144 52.4081 159.61 50.7721 158.524 48.936C157.981 48.0179 157.328 47.4124 156.567 47.1196C155.841 46.8361 155.146 46.8912 154.48 47.2849C154.067 47.5293 153.747 47.8269 153.521 48.1776C153.318 48.5148 153.203 49.0011 153.176 49.6367C153.162 50.2952 153.16 50.7616 153.167 51.0361C153.211 51.3199 153.29 51.9241 153.403 52.8486C153.675 54.6705 153.677 56.2186 153.408 57.4929C153.139 58.7672 152.362 59.7845 151.077 60.5448Z" fill="#F2BD00"/>
<path d="M152.284 78.7215C151.054 77.4389 150.125 75.7087 149.496 73.5308C148.647 70.5842 148.856 67.9427 150.125 65.6062C151.427 63.288 153.564 61.7002 156.536 60.843C159.636 59.9488 162.316 60.0501 164.575 61.147C166.834 62.2439 168.33 64.0606 169.061 66.5972C169.763 69.0313 169.54 71.1912 168.391 73.0768C167.242 74.9625 165.232 76.3192 162.362 77.1469C161.543 77.3833 160.768 77.5373 160.039 77.6087L156.204 64.3108C154.349 65.0956 153.086 66.2508 152.416 67.7763C151.746 69.3018 151.699 71.0638 152.275 73.0623C152.904 75.2402 153.854 76.8532 155.128 77.9012L152.284 78.7215ZM166.409 67.3621C165.988 65.9016 165.104 64.8105 163.758 64.0886C162.412 63.3667 160.74 63.1969 158.741 63.5792L161.756 74.033L162.524 73.8113C164.139 73.3457 165.294 72.5407 165.991 71.3961C166.713 70.2441 166.853 68.8994 166.409 67.3621Z" fill="#F2BD00"/>
<path d="M73.08 48.04L77.32 48C77.8 48 78.0533 48.0133 78.08 48.04C78.2133 48.12 78.2933 48.4267 78.32 48.96C78.32 49.2533 78.32 49.8933 78.32 50.88C78.24 57.2533 77.92 63.3067 77.36 69.04C75.2267 90.16 68.96 107.027 58.56 119.64C58.3733 119.88 58.1733 120.107 57.96 120.32C57.8 120.427 57.2933 120.427 56.44 120.32C56.2267 120.213 56.1733 120.067 56.28 119.88C56.28 119.853 56.5333 119.453 57.04 118.68C59.68 114.733 61.9467 110.533 63.84 106.08C68.7467 94.6667 71.64 80.4667 72.52 63.48C72.5733 62.52 72.6133 61.5467 72.64 60.56C72.8 57.28 72.88 53.7067 72.88 49.84C72.88 48.72 72.9467 48.12 73.08 48.04ZM106.16 50.08C106.64 49.9467 107.093 50 107.52 50.24C107.867 50.3733 108.12 50.6133 108.28 50.96C108.387 51.1733 110.533 57.32 114.72 69.4C118.933 81.5333 121.053 87.7333 121.08 88C121.107 88.8533 120.747 89.4667 120 89.84C119.893 89.8933 119.773 89.9333 119.64 89.96C118.893 90.1467 118.267 89.9333 117.76 89.32C117.68 89.2133 117.613 89.1067 117.56 89L112.04 73.24L106.64 57.68L101.24 73.24C97.56 83.72 95.72 88.9733 95.72 89C95.56 89.3467 95.3067 89.6 94.96 89.76C94.1333 90.1867 93.4 90.08 92.76 89.44C92.36 89.04 92.1733 88.56 92.2 88C92.2267 87.7333 94.3467 81.5333 98.56 69.4C102.88 57.08 105.04 50.9067 105.04 50.88C105.307 50.48 105.68 50.2133 106.16 50.08Z" fill="white"/>
</svg>
